<?xml version="1.0" encoding="utf-8"?>
<!-- Generator: Adobe Illustrator 27.0.0, SVG Export Plug-In . SVG Version: 6.00 Build 0)  -->
<svg version="1.1" id="圖層_1" xmlns="http://www.w3.org/2000/svg" xmlns:xlink="http://www.w3.org/1999/xlink" x="0px" y="0px"
	 viewBox="0 0 20 13" style="enable-background:new 0 0 20 13;" xml:space="preserve">
<style type="text/css">
	.st0{fill:#B9BFC8;}
	.st1{fill:#FFFFFF;}
</style>
<g>
	<path class="st0" d="M18,13H2c-1.1,0-2-0.9-2-2V2c0-1.1,0.9-2,2-2h16c1.1,0,2,0.9,2,2v9C20,12.1,19.1,13,18,13z"/>
	<g>
		<g>
			<path class="st1" d="M2.94,1.92c0,0.39-0.32,0.71-0.72,0.71c-0.4,0-0.72-0.32-0.72-0.71c0-0.39,0.32-0.71,0.72-0.71
				C2.61,1.21,2.94,1.53,2.94,1.92z"/>
			<path class="st1" d="M18.57,1.92c0,0.39-0.32,0.71-0.72,0.71c-0.4,0-0.72-0.32-0.72-0.71c0-0.39,0.32-0.71,0.72-0.71
				C18.24,1.21,18.57,1.53,18.57,1.92z"/>
		</g>
		<g>
			<path class="st1" d="M2.94,11.08c0,0.39-0.32,0.71-0.72,0.71c-0.4,0-0.72-0.32-0.72-0.71s0.32-0.71,0.72-0.71
				C2.61,10.37,2.94,10.69,2.94,11.08z"/>
			<path class="st1" d="M18.57,11.08c0,0.39-0.32,0.71-0.72,0.71c-0.4,0-0.72-0.32-0.72-0.71s0.32-0.71,0.72-0.71
				C18.24,10.37,18.57,10.69,18.57,11.08z"/>
		</g>
	</g>
	<path class="st1" d="M7.3,2.63c-2.18,0-3.95,1.73-3.95,3.87c0,2.13,1.77,3.87,3.95,3.87c2.18,0,3.95-1.73,3.95-3.87
		C11.26,4.37,9.49,2.63,7.3,2.63z M7.96,5.54C7.83,5.46,7.69,5.4,7.53,5.37V4.54c0.39,0.04,0.74,0.19,1.03,0.42L7.96,5.54z
		 M7.08,5.37C6.92,5.4,6.78,5.46,6.65,5.54l-0.6-0.58c0.29-0.22,0.64-0.37,1.03-0.42V5.37z M6.33,5.86
		C6.24,5.98,6.18,6.12,6.15,6.28H5.3c0.04-0.38,0.2-0.72,0.43-1L6.33,5.86z M6.15,6.72c0.03,0.15,0.09,0.29,0.18,0.42l-0.6,0.59
		C5.5,7.44,5.34,7.1,5.3,6.72H6.15z M6.65,7.46C6.78,7.54,6.92,7.6,7.08,7.63v0.83C6.69,8.42,6.34,8.27,6.05,8.04L6.65,7.46z
		 M7.53,7.63c0.16-0.03,0.3-0.09,0.43-0.17l0.6,0.58C8.27,8.27,7.92,8.42,7.53,8.46V7.63z M8.28,7.14c0.09-0.12,0.15-0.27,0.18-0.42
		h0.85c-0.04,0.38-0.2,0.72-0.43,1L8.28,7.14z M8.46,6.28C8.43,6.12,8.37,5.98,8.28,5.86l0.6-0.59c0.23,0.28,0.38,0.63,0.43,1H8.46z
		 M8.88,4.64c-0.37-0.3-0.84-0.5-1.35-0.55V3.09c0.79,0.05,1.52,0.36,2.08,0.84L8.88,4.64z M7.08,4.09C6.57,4.14,6.1,4.34,5.73,4.64
		L5,3.93c0.56-0.48,1.28-0.79,2.08-0.84V4.09z M5.4,4.96C5.09,5.32,4.89,5.78,4.84,6.28H3.81C3.87,5.5,4.18,4.8,4.68,4.25L5.4,4.96z
		 M4.84,6.72c0.05,0.5,0.25,0.96,0.56,1.32L4.68,8.75C4.18,8.2,3.87,7.5,3.81,6.72H4.84z M5.73,8.36c0.37,0.3,0.84,0.5,1.35,0.55
		v1.01C6.28,9.86,5.56,9.55,5,9.07L5.73,8.36z M7.53,8.91c0.51-0.05,0.98-0.24,1.35-0.55l0.73,0.71C9.05,9.55,8.33,9.86,7.53,9.91
		V8.91z M9.21,8.04c0.31-0.37,0.51-0.82,0.56-1.32h1.03C10.74,7.5,10.43,8.2,9.93,8.75L9.21,8.04z M9.77,6.28
		c-0.05-0.5-0.25-0.96-0.56-1.32l0.73-0.71c0.49,0.55,0.81,1.26,0.86,2.03H9.77z"/>
	<path class="st1" d="M16.78,3.81h-2.61c-0.03,0-0.07,0.01-0.09,0.04l-1.21,1.1c-0.06,0.05-0.06,0.14,0,0.2l1.21,1.1
		c0.03,0.02,0.06,0.04,0.09,0.04h2.61c0.03,0,0.07-0.01,0.09-0.04l1.21-1.1c0.06-0.05,0.06-0.14,0-0.2l-1.21-1.1
		C16.84,3.82,16.81,3.81,16.78,3.81z"/>
	<g>
		<path class="st0" d="M14.6,5.09L14.6,5.09c-0.07,0-0.13-0.06-0.13-0.13V4.2c0-0.07,0.06-0.13,0.13-0.13l0,0
			c0.07,0,0.13,0.06,0.13,0.13v0.76C14.73,5.03,14.67,5.09,14.6,5.09z"/>
		<path class="st0" d="M16.35,5.09L16.35,5.09c-0.07,0-0.13-0.06-0.13-0.13V4.2c0-0.07,0.06-0.13,0.13-0.13l0,0
			c0.07,0,0.13,0.06,0.13,0.13v0.76C16.48,5.03,16.42,5.09,16.35,5.09z"/>
		<path class="st0" d="M15.47,6.01L15.47,6.01c-0.07,0-0.13-0.06-0.13-0.13V5.13C15.34,5.06,15.4,5,15.47,5l0,0
			c0.07,0,0.13,0.06,0.13,0.13v0.76C15.6,5.96,15.54,6.01,15.47,6.01z"/>
	</g>
	<path class="st1" d="M14.53,9.75L14.53,9.75c-0.38,0-0.69-0.3-0.69-0.68l0,0c0-0.37,0.31-0.68,0.69-0.68l0,0
		c0.38,0,0.69,0.3,0.69,0.68l0,0C15.23,9.44,14.91,9.75,14.53,9.75z"/>
	<path class="st0" d="M14.87,9.07c0,0.18-0.15,0.33-0.34,0.33c-0.19,0-0.34-0.15-0.34-0.33c0-0.18,0.15-0.33,0.34-0.33
		C14.72,8.74,14.87,8.89,14.87,9.07z"/>
	<path class="st1" d="M16.41,9.75L16.41,9.75c-0.38,0-0.69-0.3-0.69-0.68l0,0c0-0.37,0.31-0.68,0.69-0.68l0,0
		c0.38,0,0.69,0.3,0.69,0.68l0,0C17.11,9.44,16.8,9.75,16.41,9.75z"/>
	<path class="st0" d="M16.41,9.43L16.41,9.43c-0.07,0-0.12-0.05-0.12-0.12V8.82c0-0.07,0.05-0.12,0.12-0.12l0,0
		c0.07,0,0.12,0.05,0.12,0.12v0.49C16.53,9.38,16.48,9.43,16.41,9.43z"/>
</g>
</svg>
