<?xml version="1.0" encoding="utf-8"?>
<!-- Generator: Adobe Illustrator 26.2.1, SVG Export Plug-In . SVG Version: 6.00 Build 0)  -->
<svg version="1.1" id="圖層_1" xmlns="http://www.w3.org/2000/svg" xmlns:xlink="http://www.w3.org/1999/xlink" x="0px" y="0px"
	 viewBox="0 0 20 20" enable-background="new 0 0 20 20" xml:space="preserve">
<g>
	<path fill="#EAEAEA" d="M17.2,13.9c-1.2-1-2.4-1.7-3.6-0.6l-0.7,0.6c-0.5,0.5-1.5,2.6-5.2-1.7c-3.7-4.3-1.5-5-1-5.4l0.7-0.6
		c1.2-1,0.7-2.3-0.1-3.7L6.7,1.6c-0.9-1.3-1.8-2.2-3-1.2L3.1,1c-0.5,0.4-2,1.6-2.4,4c-0.4,2.8,0.9,6.1,4,9.7c3.1,3.6,6.1,5.4,9,5.3
		c2.4,0,3.8-1.3,4.3-1.8l0.6-0.6c1.2-1,0.4-2.1-0.8-3.1L17.2,13.9z"/>
</g>
</svg>
