<svg xmlns="http://www.w3.org/2000/svg" viewBox="0 0 42.5 42.5" xml:space="preserve"><g fill="#FFF"><path d="M27.2 6.3H15.3c-1.9 0-3.4 1.5-3.4 3.4v23.2c0 1.9 1.5 3.4 3.4 3.4h11.9c1.9 0 3.4-1.5 3.4-3.4V9.7c0-1.9-1.5-3.4-3.4-3.4zm1.7 26.6c0 .9-.8 1.7-1.7 1.7H15.3c-.9 0-1.7-.8-1.7-1.7V9.7c0-.9.8-1.7 1.7-1.7h11.9c.9 0 1.7.8 1.7 1.7v23.2z"/><path d="M27.2 11.4H15.3c-.5 0-.9.4-.9.9s.4.9.9.9h11.9c.5 0 .9-.4.9-.9 0-.6-.4-.9-.9-.9zM27.2 28.6H15.3c-.5 0-.9.4-.9.9s.4.9.9.9h11.9c.5 0 .9-.4.9-.9s-.4-.9-.9-.9zM19.6 10.5H23c.5 0 .9-.4.9-.9s-.4-.9-.9-.9h-3.4c-.5 0-.9.4-.9.9s.4.9.9.9zM21.3 31.2c-.7 0-1.3.6-1.3 1.3 0 .7.6 1.3 1.3 1.3.7 0 1.3-.6 1.3-1.3-.1-.8-.6-1.3-1.3-1.3z"/></g></svg>