<?xml version="1.0" encoding="utf-8"?>
<!-- Generator: Adobe Illustrator 26.2.1, SVG Export Plug-In . SVG Version: 6.00 Build 0)  -->
<svg version="1.1" id="圖層_1" xmlns="http://www.w3.org/2000/svg" xmlns:xlink="http://www.w3.org/1999/xlink" x="0px" y="0px"
	 viewBox="0 0 85 80" enable-background="new 0 0 85 80" xml:space="preserve">
<g>
	<g>
		<path fill="#EAEAEA" d="M42.5,15.3c-3.4,0-6.2,2.8-6.2,6.2c0,3.4,2.8,6.2,6.2,6.2c3.4,0,6.2-2.8,6.2-6.2
			C48.7,18,45.9,15.3,42.5,15.3z"/>
		<path fill="#EAEAEA" d="M42.5,5c-9,0-16.4,7.4-16.4,16.4c0,3.1,0.9,6.1,2.5,8.7l13.9,22.2l13.9-22.2c1.6-2.6,2.5-5.6,2.5-8.7
			C58.9,12.4,51.5,5,42.5,5z M42.5,31.7c-5.7,0-10.3-4.6-10.3-10.3c0-5.7,4.6-10.3,10.3-10.3c5.7,0,10.3,4.6,10.3,10.3
			C52.8,27.1,48.2,31.7,42.5,31.7z"/>
		<path fill="#EAEAEA" d="M32.5,75h20l-1.6-12.4H34.1L32.5,75z"/>
		<path fill="#EAEAEA" d="M34.6,58.5h7l-5.8-9.2L34.6,58.5z"/>
		<path fill="#EAEAEA" d="M54.5,58.5h16.2l-5.1-12.3H52.9L54.5,58.5z"/>
		<path fill="#EAEAEA" d="M14.3,58.5h16.1L32,46.2H19.5L14.3,58.5z"/>
		<path fill="#EAEAEA" d="M43.5,58.5h6.9l-1.2-9.1L43.5,58.5z"/>
		<path fill="#EAEAEA" d="M29.9,62.6H12.6L7.5,75h20.9L29.9,62.6z"/>
		<path fill="#EAEAEA" d="M72.4,62.6H55L56.6,75h20.9L72.4,62.6z"/>
	</g>
</g>
</svg>
