<svg xmlns="http://www.w3.org/2000/svg" viewBox="0 0 42.5 42.5" xml:space="preserve"><g fill="#FFF"><path d="M34.3 8.8H8.2c-2.4 0-4.3 2-4.3 4.3v16.3c0 2.4 2 4.3 4.3 4.3h26.1c2.4 0 4.3-2 4.3-4.3V13.1c.1-2.4-1.9-4.3-4.3-4.3zm2.2 20.6c0 1.2-1 2.2-2.2 2.2H8.2c-1.2 0-2.2-1-2.2-2.2V13.1c0-1.2 1-2.2 2.2-2.2h26.1c1.2 0 2.2 1 2.2 2.2v16.3z"/><path d="M34.1 14.6c-.4-.5-1.1-.5-1.5-.2l-11.3 9.2L10 14.4c-.5-.4-1.2-.3-1.5.2-.4.5-.3 1.1.2 1.5l12 9.8c.2.2.4.2.7.2.2 0 .5-.1.7-.2l12-9.8c.3-.4.3-1 0-1.5z"/></g></svg>