<svg xmlns="http://www.w3.org/2000/svg" viewBox="0 0 42.5 42.5" xml:space="preserve"><g fill="#FFF"><path d="M21.3 6.3c-6.6 0-12 5.4-12 12 0 5.7 6.2 12.6 11.4 17.4l.6.6.6-.6c5.8-5.6 11.4-11.5 11.4-17.3 0-6.7-5.4-12.1-12-12.1zm-.1 27.4C14.6 27.6 11 22.1 11 18.3c0-5.6 4.6-10.2 10.2-10.2s10.2 4.6 10.2 10.2c.1 5-4.9 10.3-10.2 15.4z"/><path d="M21.3 13.7c-2.6 0-4.6 2.1-4.6 4.6s2.1 4.6 4.6 4.6c2.6 0 4.6-2.1 4.6-4.6s-2.1-4.6-4.6-4.6zm0 7.4c-1.5 0-2.8-1.2-2.8-2.8 0-1.5 1.2-2.8 2.8-2.8 1.5 0 2.8 1.2 2.8 2.8-.1 1.5-1.3 2.8-2.8 2.8z"/></g></svg>