<?xml version="1.0" encoding="utf-8"?>
<!-- Generator: Adobe Illustrator 26.2.1, SVG Export Plug-In . SVG Version: 6.00 Build 0)  -->
<svg version="1.1" id="圖層_1" xmlns="http://www.w3.org/2000/svg" xmlns:xlink="http://www.w3.org/1999/xlink" x="0px" y="0px"
	 viewBox="0 0 198.4 204.1" enable-background="new 0 0 198.4 204.1" xml:space="preserve">
<g>
	<g>
		<g>
			<g>
				<g>
					<g>
						<path fill="#BEBEBE" d="M117.7,33.2c7-6.9,14.4-13.4,22.6-18.9c-3.6,4-7.3,7.9-10.9,11.9c7.5,9.7,11.1,22.5,9.2,34.7
							c-2,14.1-11.2,26.9-23.8,33.4c-12.7,6.7-28.4,6.6-41.2,0.2C85.3,72.2,99.9,51.2,117.7,33.2z M94.8,90.4
							c14.2-0.5,27.6-9.7,32.6-23c4.5-11,2.7-24-4-33.8C110.5,50.5,99,69.2,94.8,90.4z"/>
					</g>
				</g>
				<path fill="#BEBEBE" d="M85.9,19.3c6.8-1.1,13.8-0.6,20.5,0.9l8.9-5.4c0.1-0.1,0.2-0.1,0.3-0.2C106.5,10,96,7.8,85.9,9.9
					c-15.4,2.5-28.9,13.8-34.2,28.5c-3.6,9.1-3.4,19.2-1.3,28.7c1.9-1.6,3.9-3.1,5.6-4.9c12.1-12.3,25.4-23.5,40.1-32.6
					C82.8,34,70,40.3,58.5,48.5C60.6,34.4,72,22.3,85.9,19.3z"/>
			</g>
		</g>
		<linearGradient id="SVGID_1_" gradientUnits="userSpaceOnUse" x1="52.8106" y1="46.2286" x2="149.5014" y2="46.2286">
			<stop  offset="0" style="stop-color:#A58063"/>
			<stop  offset="1" style="stop-color:#FFBC65"/>
		</linearGradient>
		<path fill="url(#SVGID_1_)" d="M149.2,3l-30.1,0.7l17.4,5.1c-12.4,6.2-24.1,13.7-35.2,21.8C83.9,43.3,67.8,57.7,52.8,73
			c3.1,6.3,7.4,12,12.9,16.5c7.4-13.3,17.1-25.2,26.7-36.9c16.5-19.3,36.3-35.3,57.1-49.7C149.4,3,149.3,3,149.2,3z"/>
	</g>
	<g>
		<path d="M29.8,130.5c0-6,3.5-9.7,8.2-9.7c2.3,0,4,1.1,5.1,2.3l-1.2,1.4c-1-1.1-2.2-1.8-3.9-1.8c-3.7,0-6.1,3-6.1,7.8
			c0,4.8,2.3,7.9,6,7.9c1.8,0,3.2-0.8,4.4-2.1l1.2,1.3c-1.5,1.7-3.3,2.7-5.7,2.7C33.2,140.2,29.8,136.6,29.8,130.5z"/>
		<path d="M56.9,134h-7l-1.9,5.9h-2.1l6.4-18.7h2.3l6.4,18.7h-2.2L56.9,134z M56.3,132.3l-1-3c-0.7-2.1-1.3-4.1-1.9-6.3h-0.1
			c-0.6,2.2-1.2,4.2-1.9,6.3l-1,3H56.3z"/>
		<path d="M64.4,132.3v-11.1h2.1v11.1c0,4.6,2,6,4.5,6c2.5,0,4.6-1.4,4.6-6v-11.1h2v11.1c0,6-2.9,7.9-6.6,7.9
			C67.4,140.2,64.4,138.2,64.4,132.3z"/>
		<path d="M84.1,121.2h2.1v16.9h8.3v1.8H84.1V121.2z"/>
		<path d="M99.1,121.2h10.6v1.8h-8.5v6.6h7.2v1.8h-7.2v8.5h-2.1V121.2z"/>
		<path d="M114.3,121.2h2.1v18.7h-2.1V121.2z"/>
		<path d="M122.9,121.2h10.7v1.8H125v6.2h7.2v1.8H125v7.2h8.8v1.8h-10.9V121.2z"/>
		<path d="M139.1,121.2h2.1v16.9h8.3v1.8h-10.4V121.2z"/>
		<path d="M154.1,121.2h4.6c5.8,0,8.7,3.4,8.7,9.3c0,5.9-3,9.4-8.7,9.4h-4.7V121.2z M158.5,138.1c4.6,0,6.7-2.9,6.7-7.7
			c0-4.8-2.2-7.5-6.7-7.5h-2.3v15.2H158.5z"/>
		<path d="M2.8,151.5h4.6v19H2.8V151.5z"/>
		<path d="M13.1,151.5h4.7l4.7,9.1l1.9,4.2h0.1c-0.3-2-0.6-4.8-0.6-7v-6.3h4.3v19h-4.7l-4.7-9.2l-1.9-4.2h-0.1
			c0.2,2.1,0.6,4.7,0.6,7v6.3h-4.3V151.5z"/>
		<path d="M31.4,151.5h4.8l2.2,8.7c0.6,2,0.9,4,1.5,6.1H40c0.5-2.1,0.9-4,1.5-6.1l2.1-8.7h4.7l-5.7,19h-5.5L31.4,151.5z"/>
		<path d="M51.6,151.5h12.1v3.8h-7.5v3.5h6.4v3.8h-6.4v4h7.8v3.8H51.6V151.5z"/>
		<path d="M67.7,168.2l2.6-3.1c1.4,1.2,3.1,1.9,4.6,1.9c1.7,0,2.5-0.6,2.5-1.7c0-1.1-1-1.5-2.7-2.1l-2.4-1c-2-0.8-3.9-2.5-3.9-5.2
			c0-3.2,2.9-5.8,6.9-5.8c2.2,0,4.5,0.8,6.2,2.5l-2.3,2.9c-1.3-0.9-2.4-1.5-3.9-1.5c-1.4,0-2.3,0.6-2.3,1.6c0,1,1.2,1.5,2.9,2.1
			l2.4,0.9c2.4,0.9,3.8,2.5,3.8,5.2c0,3.2-2.7,6-7.3,6C72.4,170.9,69.7,170,67.7,168.2z"/>
		<path d="M89.7,155.3h-5.1v-3.8h14.9v3.8h-5.2v15.2h-4.6V155.3z"/>
		<path d="M103.6,151.5h4.9l3,8.2c0.4,1.1,0.7,2.3,1,3.5h0.1c0.4-1.2,0.7-2.4,1-3.5l2.9-8.2h5v19h-4.2V164c0-1.9,0.4-4.7,0.6-6.6
			H118l-1.6,4.6l-2.6,7h-2.5l-2.6-7l-1.5-4.6h-0.1c0.2,1.9,0.6,4.7,0.6,6.6v6.5h-4.1V151.5z"/>
		<path d="M127.3,151.5h12.1v3.8h-7.5v3.5h6.4v3.8h-6.4v4h7.8v3.8h-12.3V151.5z"/>
		<path d="M144.7,151.5h4.7l4.7,9.1l1.9,4.2h0.1c-0.3-2-0.6-4.8-0.6-7v-6.3h4.3v19h-4.7l-4.7-9.2l-1.9-4.2h-0.1
			c0.2,2.1,0.6,4.7,0.6,7v6.3h-4.3V151.5z"/>
		<path d="M169.2,155.3H164v-3.8h14.9v3.8h-5.2v15.2h-4.6V155.3z"/>
		<path d="M181.2,168.2l2.6-3.1c1.4,1.2,3.1,1.9,4.6,1.9c1.7,0,2.5-0.6,2.5-1.7c0-1.1-1-1.5-2.7-2.1l-2.4-1c-2-0.8-3.9-2.5-3.9-5.2
			c0-3.2,2.9-5.8,6.9-5.8c2.2,0,4.5,0.8,6.2,2.5l-2.3,2.9c-1.3-0.9-2.4-1.5-3.9-1.5c-1.4,0-2.3,0.6-2.3,1.6c0,1,1.2,1.5,2.9,2.1
			l2.4,0.9c2.4,0.9,3.8,2.5,3.8,5.2c0,3.2-2.7,6-7.3,6C185.9,170.9,183.2,170,181.2,168.2z"/>
		<path d="M43.6,182.2h4.6v15.2h7.4v3.8h-12V182.2z"/>
		<path d="M60.2,182.2h4.6v19h-4.6V182.2z"/>
		<path d="M70.4,182.2h4.9l3,8.2c0.4,1.1,0.7,2.3,1,3.5h0.1c0.4-1.2,0.7-2.4,1-3.5l2.9-8.2h5v19h-4.2v-6.5c0-1.9,0.4-4.7,0.6-6.6
			h-0.1l-1.6,4.6l-2.6,7h-2.5l-2.6-7l-1.5-4.6h-0.1c0.2,1.9,0.6,4.7,0.6,6.6v6.5h-4.1V182.2z"/>
		<path d="M94.1,182.2h4.6v19h-4.6V182.2z"/>
		<path d="M108,186h-5.1v-3.8h14.9v3.8h-5.2v15.2H108V186z"/>
		<path d="M121.9,182.2H134v3.8h-7.5v3.5h6.4v3.8h-6.4v4h7.8v3.8h-12.3V182.2z"/>
		<path d="M139.3,182.2h5.5c5.8,0,9.6,2.8,9.6,9.4c0,6.6-3.8,9.6-9.4,9.6h-5.7V182.2z M144.5,197.5c3.1,0,5.2-1.4,5.2-5.9
			c0-4.5-2.2-5.8-5.2-5.8h-0.6v11.7H144.5z"/>
	</g>
</g>
<g>
</g>
<g>
</g>
<g>
</g>
<g>
</g>
<g>
</g>
<g>
</g>
</svg>
