<?xml version="1.0" encoding="utf-8"?>
<!-- Generator: Adobe Illustrator 26.2.1, SVG Export Plug-In . SVG Version: 6.00 Build 0)  -->
<svg version="1.1" id="圖層_1" xmlns="http://www.w3.org/2000/svg" xmlns:xlink="http://www.w3.org/1999/xlink" x="0px" y="0px"
	 viewBox="0 0 85 80" enable-background="new 0 0 85 80" xml:space="preserve">
<g>
	<g>
		<path fill="#EAEAEA" d="M43.1,52.4H9.4v-41h59.3v21.1c1.2,0.1,2.3,0.3,3.3,0.5V11.3h0v-0.8c0-1.7-1.3-3-3-3H9.1c-1.7,0-3,1.3-3,3
			v0.8h0v41h0v2.9c0,1.7,1.3,3,3,3h20.3l-0.3,6h-4.9c-1.3,0-2.4,1.1-2.4,2.4c0,1.3,1.1,2.4,2.4,2.4h19V52.4z"/>
		<path fill="#EAEAEA" d="M45.6,60.6c0-0.1-0.2,0-0.2,0v7.5c0,0.4,0.3,0.9,0.7,1.3c2.1,1.7,8.5,3,16,3c9.2,0,16.7-1.9,16.7-4.3v-7.5
			c0-0.1-0.1-0.1-0.2,0c-0.3,0.5-0.9,1-1.8,1.4c-2.8,1.3-8.4,2.3-14.8,2.3C53.7,64.3,46.7,62.7,45.6,60.6z"/>
		<path fill="#EAEAEA" d="M62.2,52.8c-8.5,0-15.5-1.6-16.6-3.7c0-0.1-0.2,0-0.2,0v7.5c0,2.4,7.5,4.3,16.7,4.3
			c6.4,0,11.9-0.9,14.8-2.3c1.3-0.6,2-1.3,2-2v-7.5c0-0.1-0.1-0.1-0.2,0c-0.3,0.5-0.9,1-1.8,1.4C74.1,51.9,68.6,52.8,62.2,52.8z"/>
		<path fill="#EAEAEA" d="M62.2,34.6c-9.2,0-16.7,1.9-16.7,4.3v6.3c0,2.4,7.5,4.3,16.7,4.3c6.4,0,11.9-0.9,14.8-2.3
			c1.3-0.6,2-1.3,2-2v-6.3c0,0,0,0,0,0c0-0.7-0.7-1.4-2-2C74.1,35.6,68.6,34.6,62.2,34.6z"/>
		<g>
			<g>
				<path fill="#EAEAEA" d="M30.5,16.6c-7.7,0-13.9,6.2-13.9,13.9s6.2,13.9,13.9,13.9c7.7,0,13.9-6.2,13.9-13.9S38.2,16.6,30.5,16.6
					z M29.1,38.5l-7.2-7.2l3.1-3.1l4.2,4.2l7.6-7.6l3.1,3.1L29.1,38.5z"/>
			</g>
		</g>
	</g>
</g>
</svg>
