<svg xmlns="http://www.w3.org/2000/svg" viewBox="0 0 73.9 70.9" xml:space="preserve"><path fill="#BEBEBE" d="M50.5 22.3c5.1-5.1 10.6-9.9 16.6-13.9-2.7 2.9-5.4 5.8-8 8.8 5.5 7.2 8.2 16.5 6.7 25.5-1.4 10.3-8.1 19.7-17.4 24.5-9.4 4.9-20.9 4.8-30.3.2 8.6-16.5 19.4-31.9 32.4-45.1zm-16.8 42c10.4-.4 20.3-7.1 24-16.9 3.3-8.1 2-17.7-3-24.8-9.5 12.4-17.9 26.1-21 41.7zM27.2 12c5-.8 10.1-.4 15.1.7l6.6-4c.1 0 .1-.1.2-.1-6.7-3.4-14.4-5-21.8-3.4C15.9 7 6 15.3 2.1 26.1c-2.6 6.7-2.5 14.1-.9 21.1C2.6 46 4 44.9 5.3 43.5c8.9-9 18.6-17.3 29.5-24-9.8 3.3-19.2 7.9-27.7 13.9C8.6 23.2 17 14.2 27.2 12z"/><linearGradient id="a" gradientUnits="userSpaceOnUse" x1="2.857" y1="31.834" x2="73.922" y2="31.834"><stop offset="0" style="stop-color:#a58063"/><stop offset="1" style="stop-color:#ffbc65"/></linearGradient><path fill="url(#a)" d="M73.7.1 51.6.6l12.8 3.7c-9.1 4.5-17.7 10-25.9 16-12.8 9.4-24.6 19.9-35.6 31.2 2.3 4.6 5.5 8.8 9.4 12.1 5.5-9.8 12.6-18.5 19.7-27.1C44.1 22.3 58.7 10.5 74 0c-.2 0-.2.1-.3.1z"/></svg>