<?xml version="1.0" encoding="utf-8"?>
<!-- Generator: Adobe Illustrator 26.2.1, SVG Export Plug-In . SVG Version: 6.00 Build 0)  -->
<svg version="1.1" id="圖層_1" xmlns="http://www.w3.org/2000/svg" xmlns:xlink="http://www.w3.org/1999/xlink" x="0px" y="0px"
	 viewBox="0 0 493.7 78.2" enable-background="new 0 0 493.7 78.2" xml:space="preserve">
<g>
	<g>
		<g>
			<linearGradient id="SVGID_1_" gradientUnits="userSpaceOnUse" x1="1.5746" y1="19.9076" x2="71.3129" y2="19.9076">
				<stop  offset="0" style="stop-color:#2DD9FF"/>
				<stop  offset="0.4951" style="stop-color:#114FED"/>
				<stop  offset="1" style="stop-color:#00003C"/>
			</linearGradient>
			<path fill="url(#SVGID_1_)" d="M67,9.6C64.4,7,60.7,5.3,56.7,5.3H1.6l11.3,12.1h38.5c2.4,0,4.4,2,4.4,4.4s-2,4.4-4.4,4.4H44l0,0
				l7.8,8.3h4.9c8,0,14.6-6.6,14.6-14.6C71.3,15.9,69.7,12.2,67,9.6z"/>
		</g>
		
			<linearGradient id="SVGID_00000068669200887740210580000006598792463266713747_" gradientUnits="userSpaceOnUse" x1="21.1757" y1="36.0899" x2="60.325" y2="36.0899">
			<stop  offset="0" style="stop-color:#158E86"/>
			<stop  offset="1" style="stop-color:#AFF122"/>
		</linearGradient>
		<polygon fill="url(#SVGID_00000068669200887740210580000006598792463266713747_)" points="60.3,46 48.6,46 37.2,34.5 28.9,34.5 
			21.2,26.2 40.9,26.2 45,30.7 		"/>
		
			<linearGradient id="SVGID_00000084491749170009648570000015479320303873906605_" gradientUnits="userSpaceOnUse" x1="0" y1="39.693" x2="72.8876" y2="39.693">
			<stop  offset="0" style="stop-color:#2DD9FF"/>
			<stop  offset="0.4951" style="stop-color:#114FED"/>
			<stop  offset="1" style="stop-color:#00003C"/>
		</linearGradient>
		<path fill-rule="evenodd" clip-rule="evenodd" fill="url(#SVGID_00000084491749170009648570000015479320303873906605_)" d="
			M72.9,54.7c-0.3,0.8-0.6,1.5-0.9,2.3c-1.3,3-3.2,6.1-6.2,7.7c-3.3,1.8-6.9,1.1-10.1-0.6c-2.1-1.1-4.1-2.6-5.9-4
			c-2.5-1.9-4.8-4-7.1-6.1c-5.5-5.1-10.8-10.6-16-16.1C20,30.7,13.5,23.4,7.1,16C4.7,13.3,2.3,10.5,0,7.7l0.5,49.8l14.4-14.7
			l0.6,0.8c0.5,0.7,1.1,1.3,1.6,1.9c1.4,1.6,2.8,3.3,4.3,4.8c4.4,4.6,9.2,9.1,14.3,12.9c3.7,2.7,7.7,5.2,12,6.8
			c5.6,2.1,11.7,2.5,16.9-0.9c3.5-2.3,5.7-6,7.1-9.9C72.2,57.8,72.6,56.2,72.9,54.7"/>
	</g>
	<g>
		<path fill="#201572" d="M104.9,28h-4.3v11.7h-8v-33h13c3.9,0,7,0.9,9.2,2.6c2.2,1.7,3.3,4.2,3.3,7.4c0,2.3-0.5,4.2-1.4,5.7
			c-0.9,1.5-2.4,2.7-4.4,3.7l6.9,13.3v0.3h-8.5L104.9,28z M100.6,21.9h5c1.5,0,2.6-0.4,3.4-1.2c0.8-0.8,1.1-1.9,1.1-3.3
			c0-1.4-0.4-2.5-1.2-3.3c-0.8-0.8-1.9-1.2-3.4-1.2h-5V21.9z"/>
		<path fill="#201572" d="M141.6,33.5h-10.9l-1.9,6.2h-8.5l12.1-33h7.5l12.2,33h-8.5L141.6,33.5z M132.6,27.4h7.1l-3.6-11.4
			L132.6,27.4z"/>
		<path fill="#201572" d="M154.5,39.7v-33h10.6c2.9,0,5.5,0.7,7.9,2c2.3,1.3,4.1,3.2,5.4,5.6c1.3,2.4,2,5.1,2,8.1v1.5
			c0,3-0.6,5.7-1.9,8.1c-1.3,2.4-3.1,4.3-5.4,5.6c-2.3,1.4-4.9,2-7.8,2.1H154.5z M162.5,12.8v20.7h2.8c2.3,0,4-0.8,5.3-2.4
			c1.2-1.6,1.8-4,1.8-7.2v-1.4c0-3.2-0.6-5.6-1.8-7.2c-1.2-1.6-3-2.4-5.3-2.4H162.5z"/>
		<path fill="#201572" d="M193,39.7h-7.9v-33h7.9V39.7z"/>
		<path fill="#201572" d="M217.7,33.5h-10.9l-1.9,6.2h-8.5l12.1-33h7.5l12.2,33h-8.5L217.7,33.5z M208.7,27.4h7.1l-3.6-11.4
			L208.7,27.4z"/>
		<path fill="#201572" d="M258.1,39.7h-7.9l-11.7-20.5v20.5h-8v-33h8l11.7,20.5V6.7h7.9V39.7z"/>
		<path fill="#201572" d="M288.3,12.8h-9.9v26.8h-8V12.8h-9.7V6.7h27.6V12.8z"/>
		<path fill="#EA5F4D" d="M327.6,35.4c-1.1,1.6-2.7,2.8-4.7,3.6c-2,0.8-4.3,1.2-7,1.2c-2.7,0-5.1-0.6-7.2-1.9
			c-2.1-1.3-3.7-3.1-4.8-5.4c-1.1-2.3-1.7-5-1.8-8.1v-2.9c0-5,1.2-8.8,3.5-11.6c2.3-2.7,5.6-4.1,9.8-4.1c3.4,0,6.2,0.9,8.3,2.6
			c2.1,1.8,3.4,4.3,3.9,7.5h-4.3c-0.8-4.4-3.4-6.6-7.8-6.6c-2.9,0-5.1,1-6.6,3.1c-1.5,2-2.3,5-2.3,8.9v2.7c0,3.7,0.8,6.6,2.5,8.8
			c1.7,2.2,4,3.3,6.9,3.3c1.6,0,3.1-0.2,4.3-0.5c1.2-0.4,2.2-1,3-1.8v-7.4h-7.6v-3.6h12V35.4z"/>
		<path fill="#EA5F4D" d="M346.9,26.3h-7.7v13.3h-4.4v-33h10.9c3.7,0,6.6,0.8,8.6,2.5c2,1.7,3,4.2,3,7.4c0,2.1-0.6,3.8-1.7,5.4
			c-1.1,1.5-2.7,2.7-4.6,3.4l7.7,14v0.3h-4.7L346.9,26.3z M339.2,22.8h6.7c2.2,0,3.9-0.6,5.2-1.7c1.3-1.1,1.9-2.6,1.9-4.5
			c0-2-0.6-3.6-1.8-4.7c-1.2-1.1-3-1.6-5.3-1.7h-6.7V22.8z"/>
		<path fill="#EA5F4D" d="M388.8,24.3c0,3.2-0.5,6.1-1.6,8.5c-1.1,2.4-2.6,4.2-4.6,5.5c-2,1.3-4.3,1.9-7,1.9c-2.6,0-4.9-0.6-6.9-1.9
			c-2-1.3-3.6-3.1-4.7-5.5c-1.1-2.4-1.7-5.1-1.7-8.2v-2.4c0-3.2,0.6-6,1.7-8.4s2.7-4.3,4.7-5.6s4.3-1.9,6.9-1.9c2.6,0,5,0.6,7,1.9
			c2,1.3,3.6,3.1,4.7,5.6c1.1,2.4,1.6,5.2,1.6,8.5V24.3z M384.4,22.1c0-3.9-0.8-6.9-2.4-9c-1.6-2.1-3.8-3.1-6.6-3.1
			c-2.8,0-4.9,1-6.5,3.1c-1.6,2.1-2.4,5-2.4,8.7v2.4c0,3.8,0.8,6.8,2.4,8.9c1.6,2.2,3.8,3.3,6.6,3.3c2.8,0,5-1,6.5-3.1
			c1.5-2,2.3-5,2.4-8.8V22.1z"/>
		<path fill="#EA5F4D" d="M402.4,29.3l0.6,4.3l0.9-3.9l6.5-23h3.7l6.4,23l0.9,4l0.7-4.4l5.1-22.6h4.4l-8,33h-4l-6.8-24l-0.5-2.5
			l-0.5,2.5l-7,24h-4l-8-33h4.4L402.4,29.3z"/>
		<path fill="#EA5F4D" d="M459.6,10.3H449v29.4h-4.3V10.3h-10.6V6.7h25.5V10.3z"/>
		<path fill="#EA5F4D" d="M489.8,39.7h-4.4V24.4h-16.6v15.2h-4.3v-33h4.3v14.2h16.6V6.7h4.4V39.7z"/>
	</g>
	<g>
		<path fill="#171C61" d="M96.6,69.9h8.1v1.8H94.4V54.6h2.3V69.9z"/>
		<path fill="#171C61" d="M116.9,71.7h-2.2V54.6h2.2V71.7z"/>
		<path fill="#171C61" d="M131.1,54.6l5.6,13.9l5.6-13.9h2.9v17.1H143v-6.6l0.2-7.2l-5.6,13.8h-1.7l-5.6-13.8l0.2,7.1v6.6h-2.2V54.6
			H131.1z"/>
		<path fill="#171C61" d="M158.8,71.7h-2.2V54.6h2.2V71.7z"/>
		<path fill="#171C61" d="M181.6,56.5h-5.5v15.2h-2.2V56.5h-5.5v-1.8h13.2V56.5z"/>
		<path fill="#171C61" d="M200.9,63.8h-7.4v6h8.6v1.8h-10.8V54.6H202v1.8h-8.5V62h7.4V63.8z"/>
		<path fill="#171C61" d="M212.1,71.7V54.6h4.8c1.5,0,2.8,0.3,3.9,1s2,1.6,2.6,2.8s0.9,2.6,0.9,4.2v1.1c0,1.6-0.3,3-0.9,4.2
			s-1.5,2.1-2.7,2.8s-2.5,1-4,1H212.1z M214.4,56.5v13.4h2.4c1.7,0,3.1-0.5,4-1.6s1.4-2.6,1.4-4.6v-1c0-1.9-0.5-3.4-1.4-4.5
			s-2.2-1.6-3.9-1.6H214.4z"/>
	</g>
</g>
</svg>
