<?xml version="1.0" encoding="utf-8"?>
<!-- Generator: Adobe Illustrator 26.2.1, SVG Export Plug-In . SVG Version: 6.00 Build 0)  -->
<svg version="1.1" id="圖層_1" xmlns="http://www.w3.org/2000/svg" xmlns:xlink="http://www.w3.org/1999/xlink" x="0px" y="0px"
	 viewBox="0 0 85 80" enable-background="new 0 0 85 80" xml:space="preserve">
<g>
	<rect x="70.3" y="7.5" fill="#EAEAEA" width="2.8" height="51.3"/>
	
		<rect x="3.1" y="45.2" fill="#EAEAEA" stroke="#EAEAEA" stroke-width="3.7266" stroke-linecap="round" stroke-linejoin="round" stroke-miterlimit="10" width="10.6" height="27.3"/>
	
		<path fill="none" stroke="#EAEAEA" stroke-width="3.7266" stroke-linecap="round" stroke-linejoin="round" stroke-miterlimit="10" d="
		M13.6,46.8c0-0.1,2.5-0.9,5.3-1.8c4.4-1.4,9.2-0.6,12.8,2.2l10.6,8.1h13.3c1.9,0,3.5,1.6,3.5,3.5v3.9"/>
	
		<path fill="none" stroke="#EAEAEA" stroke-width="3.7266" stroke-linecap="round" stroke-linejoin="round" stroke-miterlimit="10" d="
		M13.6,68.6l3,2.3c1.3,1,3,1.6,4.6,1.6h46.4c1.2,0,2.4-0.4,3.3-1.2l9.2-7.7c2.1-1.7,2.3-4.8,0.4-6.8l0,0c-1.7-1.8-4.4-2-6.4-0.5
		l-8,6.3H36.5"/>
	
		<line fill="none" stroke="#EAEAEA" stroke-width="3.7266" stroke-linecap="round" stroke-linejoin="round" stroke-miterlimit="10" x1="9.2" y1="72.5" x2="9.2" y2="60"/>
	
		<polyline fill="none" stroke="#EAEAEA" stroke-width="3.7266" stroke-linecap="round" stroke-linejoin="round" stroke-miterlimit="10" points="
		20.7,44.5 20.7,41.8 20.7,34.2 20.7,28.4 39.3,28.4 44.5,34.2 73,34.2 73,57.3 	"/>
	
		<polyline fill="none" stroke="#EAEAEA" stroke-width="3.7266" stroke-linecap="round" stroke-linejoin="round" stroke-miterlimit="10" points="
		41.6,31 41.6,17.9 31.2,17.9 31.2,28.4 	"/>
	
		<polyline fill="none" stroke="#EAEAEA" stroke-width="3.7266" stroke-linecap="round" stroke-linejoin="round" stroke-miterlimit="10" points="
		52,34.1 52,20.8 41.6,20.8 41.6,31 	"/>
	
		<rect x="52.2" y="14.4" fill="none" stroke="#EAEAEA" stroke-width="3.7266" stroke-linecap="round" stroke-linejoin="round" stroke-miterlimit="10" width="10.4" height="19.8"/>
	
		<rect x="62.6" y="7.5" fill="none" stroke="#EAEAEA" stroke-width="3.7266" stroke-linecap="round" stroke-linejoin="round" stroke-miterlimit="10" width="10.4" height="26.7"/>
	
		<line fill="none" stroke="#EAEAEA" stroke-width="3.7266" stroke-linecap="round" stroke-linejoin="round" stroke-miterlimit="10" x1="44.5" y1="34.2" x2="35.6" y2="34.2"/>
	
		<line fill="none" stroke="#EAEAEA" stroke-width="3.7266" stroke-linecap="round" stroke-linejoin="round" stroke-miterlimit="10" x1="58.4" y1="39.1" x2="68.5" y2="49.4"/>
</g>
</svg>
