<?xml version="1.0" encoding="utf-8"?>
<!-- Generator: Adobe Illustrator 26.2.1, SVG Export Plug-In . SVG Version: 6.00 Build 0)  -->
<svg version="1.1" id="圖層_1" xmlns="http://www.w3.org/2000/svg" xmlns:xlink="http://www.w3.org/1999/xlink" x="0px" y="0px"
	 viewBox="0 0 20 20" enable-background="new 0 0 20 20" xml:space="preserve">
<g>
	<path fill="#EAEAEA" d="M11.7,12.3c-0.5,0.3-1.1,0.5-1.7,0.5c-0.6,0-1.2-0.2-1.7-0.5L0.1,6.8c0,0-0.1-0.1-0.1-0.1v9
		c0,1,0.8,1.8,1.8,1.8h16.3c1,0,1.8-0.8,1.8-1.8v-9c0,0-0.1,0.1-0.1,0.1L11.7,12.3z"/>
	<path fill="#EAEAEA" d="M0.8,5.8L9,11.3c0.3,0.2,0.7,0.3,1,0.3c0.4,0,0.7-0.1,1-0.3l8.2-5.5C19.7,5.5,20,4.9,20,4.4
		c0-1-0.8-1.8-1.8-1.8H1.8C0.8,2.5,0,3.3,0,4.4C0,4.9,0.3,5.5,0.8,5.8z"/>
</g>
</svg>
