<?xml version="1.0" encoding="utf-8"?>
<!-- Generator: Adobe Illustrator 27.0.0, SVG Export Plug-In . SVG Version: 6.00 Build 0)  -->
<svg version="1.1" id="圖層_1" xmlns="http://www.w3.org/2000/svg" xmlns:xlink="http://www.w3.org/1999/xlink" x="0px" y="0px"
	 viewBox="0 0 20 8" style="enable-background:new 0 0 20 8;" xml:space="preserve">
<style type="text/css">
	.st0{fill:#B9BFC8;}
	.st1{fill:none;stroke:#4C9A7A;stroke-width:3.850000e-03;stroke-miterlimit:10;}
	.st2{fill:#FFFFFF;}
</style>
<g>
	<g>
		<path class="st0" d="M20,3.17V0.5C20,0.22,19.79,0,19.53,0H0.47C0.21,0,0,0.22,0,0.5v2.68c0.2,0.07,0.34,0.26,0.34,0.49
			C0.34,3.9,0.2,4.1,0,4.17V7.5C0,7.78,0.21,8,0.47,8h8.39C8.97,7.45,9.44,7.03,10,7.03c0.56,0,1.03,0.41,1.14,0.97h8.39
			C19.79,8,20,7.78,20,7.5V4.18c-0.21-0.06-0.37-0.26-0.37-0.5S19.79,3.23,20,3.17z M2.72,4.78c0,0.16-0.12,0.28-0.27,0.28H1.38
			c-0.15,0-0.27-0.13-0.27-0.28V1.52c0-0.16,0.12-0.28,0.27-0.28h1.07c0.15,0,0.27,0.13,0.27,0.28V4.78z M10.8,4.78
			c0,0.16-0.12,0.28-0.27,0.28H9.47c-0.15,0-0.27-0.13-0.27-0.28V1.52c0-0.16,0.12-0.28,0.27-0.28h1.07c0.15,0,0.27,0.13,0.27,0.28
			V4.78z M18.89,4.78c0,0.16-0.12,0.28-0.27,0.28h-1.07c-0.15,0-0.27-0.13-0.27-0.28V1.52c0-0.16,0.12-0.28,0.27-0.28h1.07
			c0.15,0,0.27,0.13,0.27,0.28V4.78z"/>
		<path class="st1" d="M20,3.17V0.5C20,0.22,19.79,0,19.53,0H0.47C0.21,0,0,0.22,0,0.5v2.68c0.2,0.07,0.34,0.26,0.34,0.49
			C0.34,3.9,0.2,4.1,0,4.17V7.5C0,7.78,0.21,8,0.47,8h8.39C8.97,7.45,9.44,7.03,10,7.03c0.56,0,1.03,0.41,1.14,0.97h8.39
			C19.79,8,20,7.78,20,7.5V4.18c-0.21-0.06-0.37-0.26-0.37-0.5S19.79,3.23,20,3.17z"/>
		<g>
			<g>
				<path class="st2" d="M2.45,1.24H1.38c-0.15,0-0.27,0.13-0.27,0.28v3.25c0,0.16,0.12,0.28,0.27,0.28h1.07
					c0.15,0,0.27-0.13,0.27-0.28V1.52C2.72,1.37,2.6,1.24,2.45,1.24z"/>
			</g>
			<g>
				<path class="st2" d="M6.49,1.24H5.42c-0.15,0-0.27,0.13-0.27,0.28v3.25c0,0.16,0.12,0.28,0.27,0.28h1.07
					c0.15,0,0.27-0.13,0.27-0.28V1.52C6.75,1.37,6.63,1.24,6.49,1.24z"/>
			</g>
			<g>
				<path class="st2" d="M10.53,1.24H9.46c-0.15,0-0.27,0.13-0.27,0.28v3.25c0,0.16,0.12,0.28,0.27,0.28h1.07
					c0.15,0,0.27-0.13,0.27-0.28V1.52C10.8,1.37,10.68,1.24,10.53,1.24z"/>
			</g>
			<g>
				<path class="st2" d="M14.58,1.24h-1.07c-0.15,0-0.27,0.13-0.27,0.28v3.25c0,0.16,0.12,0.28,0.27,0.28h1.07
					c0.15,0,0.27-0.13,0.27-0.28V1.52C14.84,1.37,14.72,1.24,14.58,1.24z"/>
			</g>
			<g>
				<path class="st2" d="M18.62,1.24h-1.07c-0.15,0-0.27,0.13-0.27,0.28v3.25c0,0.16,0.12,0.28,0.27,0.28h1.07
					c0.15,0,0.27-0.13,0.27-0.28V1.52C18.89,1.37,18.77,1.24,18.62,1.24z"/>
			</g>
		</g>
		<g>
			<g>
				<path class="st2" d="M1.35,7.26H1.23c-0.07,0-0.12-0.06-0.12-0.13V6.09c0-0.07,0.05-0.13,0.12-0.13h0.12
					c0.07,0,0.12,0.06,0.12,0.13v1.04C1.48,7.2,1.42,7.26,1.35,7.26z"/>
				<path class="st2" d="M2.46,7.26H2.34c-0.07,0-0.12-0.06-0.12-0.13V6.09c0-0.07,0.05-0.13,0.12-0.13h0.12
					c0.07,0,0.12,0.06,0.12,0.13v1.04C2.58,7.2,2.53,7.26,2.46,7.26z"/>
				<path class="st2" d="M3.56,7.26H3.44c-0.07,0-0.12-0.06-0.12-0.13V6.09c0-0.07,0.05-0.13,0.12-0.13h0.12
					c0.07,0,0.12,0.06,0.12,0.13v1.04C3.68,7.2,3.63,7.26,3.56,7.26z"/>
				<path class="st2" d="M4.67,7.26H4.55c-0.07,0-0.12-0.06-0.12-0.13V6.09c0-0.07,0.05-0.13,0.12-0.13h0.12
					c0.07,0,0.12,0.06,0.12,0.13v1.04C4.79,7.2,4.73,7.26,4.67,7.26z"/>
				<path class="st2" d="M5.77,7.26H5.65c-0.07,0-0.12-0.06-0.12-0.13V6.09c0-0.07,0.05-0.13,0.12-0.13h0.12
					c0.07,0,0.12,0.06,0.12,0.13v1.04C5.89,7.2,5.84,7.26,5.77,7.26z"/>
				<path class="st2" d="M6.88,7.26H6.76c-0.07,0-0.12-0.06-0.12-0.13V6.09c0-0.07,0.05-0.13,0.12-0.13h0.12
					C6.94,5.96,7,6.02,7,6.09v1.04C7,7.2,6.94,7.26,6.88,7.26z"/>
				<path class="st2" d="M7.98,7.26H7.86c-0.07,0-0.12-0.06-0.12-0.13V6.09c0-0.07,0.05-0.13,0.12-0.13h0.12
					c0.07,0,0.12,0.06,0.12,0.13v1.04C8.1,7.2,8.05,7.26,7.98,7.26z"/>
			</g>
		</g>
		<g>
			<g>
				<path class="st2" d="M12.14,7.26h-0.12c-0.07,0-0.12-0.06-0.12-0.13V6.09c0-0.07,0.05-0.13,0.12-0.13h0.12
					c0.07,0,0.12,0.06,0.12,0.13v1.04C12.26,7.2,12.21,7.26,12.14,7.26z"/>
				<path class="st2" d="M13.24,7.26h-0.12C13.05,7.26,13,7.2,13,7.13V6.09c0-0.07,0.05-0.13,0.12-0.13h0.12
					c0.07,0,0.12,0.06,0.12,0.13v1.04C13.36,7.2,13.31,7.26,13.24,7.26z"/>
				<path class="st2" d="M14.35,7.26h-0.12c-0.07,0-0.12-0.06-0.12-0.13V6.09c0-0.07,0.05-0.13,0.12-0.13h0.12
					c0.07,0,0.12,0.06,0.12,0.13v1.04C14.47,7.2,14.41,7.26,14.35,7.26z"/>
				<path class="st2" d="M15.45,7.26h-0.12c-0.07,0-0.12-0.06-0.12-0.13V6.09c0-0.07,0.05-0.13,0.12-0.13h0.12
					c0.07,0,0.12,0.06,0.12,0.13v1.04C15.57,7.2,15.52,7.26,15.45,7.26z"/>
				<path class="st2" d="M16.56,7.26h-0.12c-0.07,0-0.12-0.06-0.12-0.13V6.09c0-0.07,0.05-0.13,0.12-0.13h0.12
					c0.07,0,0.12,0.06,0.12,0.13v1.04C16.68,7.2,16.62,7.26,16.56,7.26z"/>
				<path class="st2" d="M17.66,7.26h-0.12c-0.07,0-0.12-0.06-0.12-0.13V6.09c0-0.07,0.05-0.13,0.12-0.13h0.12
					c0.07,0,0.12,0.06,0.12,0.13v1.04C17.78,7.2,17.73,7.26,17.66,7.26z"/>
				<path class="st2" d="M18.76,7.26h-0.12c-0.07,0-0.12-0.06-0.12-0.13V6.09c0-0.07,0.05-0.13,0.12-0.13h0.12
					c0.07,0,0.12,0.06,0.12,0.13v1.04C18.89,7.2,18.83,7.26,18.76,7.26z"/>
			</g>
		</g>
	</g>
</g>
</svg>
