<?xml version="1.0" encoding="utf-8"?>
<!-- Generator: Adobe Illustrator 26.2.1, SVG Export Plug-In . SVG Version: 6.00 Build 0)  -->
<svg version="1.1" id="圖層_1" xmlns="http://www.w3.org/2000/svg" xmlns:xlink="http://www.w3.org/1999/xlink" x="0px" y="0px"
	 viewBox="0 0 85 80" enable-background="new 0 0 85 80" xml:space="preserve">
<g>
	<path fill="#EAEAEA" d="M8.2,72.5h60.8c4,0,7.4-3.4,7.4-7.4V41.6h-2.6v23.5c0,2.6-2.1,4.7-4.7,4.8H8.2c-2.6,0-4.7-2.2-4.7-4.8V22.5
		c0-2.6,2.1-4.7,4.7-4.7h41.7v-2.6H8.2c-4,0-7.3,3.3-7.3,7.3v42.6C0.9,69.1,4.2,72.5,8.2,72.5z"/>
	<path fill="#EAEAEA" d="M68.1,28.6c2.8,0,5.2-2.3,5.2-5.2c0-2.8-2.3-5.2-5.2-5.2c-2.8,0-5.2,2.3-5.2,5.2
		C63,26.3,65.3,28.6,68.1,28.6z"/>
	<path fill="#EAEAEA" d="M57.5,34.6h21.3c0.3,0,0.5-0.2,0.5-0.5c0,0,0,0,0,0V12.8c0-0.3-0.2-0.5-0.5-0.5c0,0,0,0,0,0H57.5
		c-0.3,0-0.5,0.2-0.5,0.5c0,0,0,0,0,0v21.3C56.9,34.4,57.2,34.6,57.5,34.6C57.5,34.6,57.5,34.6,57.5,34.6z M68.1,16.1
		c4.1,0,7.3,3.3,7.3,7.3c0,4.1-3.3,7.3-7.3,7.3c-4.1,0-7.3-3.3-7.3-7.3C60.8,19.4,64.1,16.1,68.1,16.1z"/>
	<path fill="#EAEAEA" d="M57.5,39.5h21.3c2.9,0,5.3-2.4,5.3-5.3V12.8c0-2.9-2.4-5.3-5.3-5.3H57.5c-2.9,0-5.3,2.4-5.3,5.3v21.3
		C52.1,37.1,54.5,39.5,57.5,39.5z M54.8,12.8c0-1.5,1.2-2.7,2.7-2.7h21.3c1.5,0,2.7,1.2,2.7,2.7v21.3c0,1.5-1.2,2.7-2.7,2.7H57.5
		c-1.5,0-2.7-1.2-2.7-2.7V12.8z"/>
	<path fill="#EAEAEA" d="M8.2,20c-1.4,0-2.5,1.1-2.5,2.5c0,0,0,0,0,0v42.6c0,1.4,1.1,2.6,2.5,2.6h60.8c1.4,0,2.5-1.2,2.5-2.6V41.6
		H57.5c-4.2,0-7.5-3.4-7.6-7.6V20H8.2z M11.4,42.7c0,0.6-0.5,1.1-1.1,1.1c-0.6,0-1.1-0.5-1.1-1.1V30.4c0-0.6,0.5-1.1,1.1-1.1
		c0.6,0,1.1,0.5,1.1,1.1V42.7z M11.4,25.6c0,0.6-0.5,1.1-1.1,1.1c-0.6,0-1.1-0.5-1.1-1.1v-1c0-0.6,0.5-1.1,1.1-1.1
		c0.6,0,1.1,0.5,1.1,1.1V25.6z"/>
</g>
</svg>
