<?xml version="1.0" encoding="utf-8"?>
<!-- Generator: Adobe Illustrator 26.2.1, SVG Export Plug-In . SVG Version: 6.00 Build 0)  -->
<svg version="1.1" id="圖層_1" xmlns="http://www.w3.org/2000/svg" xmlns:xlink="http://www.w3.org/1999/xlink" x="0px" y="0px"
	 viewBox="0 0 85 80" enable-background="new 0 0 85 80" xml:space="preserve">
<g>
	<g>
		<path fill="#EAEAEA" d="M47.4,45.9h9c0.4,0.7,1.1,1.2,1.9,1.5v3.3H47.9c-0.5,0-1,0.4-1,1v15c0,0.5,0.4,1,1,1h23c0.5,0,1-0.4,1-1
			v-15c0-0.5-0.4-1-1-1h-9.7v-3.6c1-0.6,1.7-1.7,1.7-3c0-1.9-1.6-3.5-3.5-3.5c-1.6,0-3,1.1-3.4,2.6h-8.5c-0.1-1.1-1-1.9-2.1-1.9
			h-0.8v-9.3h12c1.7,0,3.1-1.4,3.1-3.1v-4.5c0-1.7-1.4-3.1-3.1-3.1h-12v-3.2h12c1.7,0,3.1-1.4,3.1-3.1v-4.5c0-1.7-1.4-3.1-3.1-3.1
			H28.4c-1.7,0-3.1,1.4-3.1,3.1V15c0,1.7,1.4,3.1,3.1,3.1h13.3v3.2H28.4c-1.7,0-3.1,1.4-3.1,3.1v4.5c0,1.7,1.4,3.1,3.1,3.1h13.3v9.3
			H41c-1.1,0-2,0.8-2.1,1.9h-9.5c-0.4-1.5-1.8-2.6-3.4-2.6c-1.9,0-3.5,1.6-3.5,3.5c0,1.3,0.7,2.4,1.7,3v3.6H14.2c-0.5,0-1,0.4-1,1
			v15c0,0.5,0.4,1,1,1h23c0.5,0,1-0.4,1-1v-15c0-0.5-0.4-1-1-1H27.1v-3.3c0.8-0.2,1.5-0.8,1.9-1.5h10c0.3,0.8,1.1,1.4,2,1.4h4.3
			C46.3,47.4,47.1,46.8,47.4,45.9z M68.6,52.6c0.4,0,0.8,0.3,0.8,0.8v11.5c0,0.4-0.3,0.8-0.8,0.8H50.1c-0.4,0-0.8-0.3-0.8-0.8V53.4
			c0-0.4,0.3-0.8,0.8-0.8H68.6z M54.5,24.3c1.3,0,2.3,1,2.3,2.3c0,1.2-1,2.3-2.3,2.3c-1.2,0-2.3-1-2.3-2.3
			C52.2,25.4,53.2,24.3,54.5,24.3z M47.7,24.3c1.3,0,2.3,1,2.3,2.3c0,1.2-1,2.3-2.3,2.3c-1.2,0-2.3-1-2.3-2.3
			C45.5,25.4,46.5,24.3,47.7,24.3z M54.5,10.5c1.3,0,2.3,1,2.3,2.3c0,1.2-1,2.3-2.3,2.3c-1.2,0-2.3-1-2.3-2.3
			C52.2,11.5,53.2,10.5,54.5,10.5z M47.7,10.5c1.3,0,2.3,1,2.3,2.3c0,1.2-1,2.3-2.3,2.3c-1.2,0-2.3-1-2.3-2.3
			C45.5,11.5,46.5,10.5,47.7,10.5z M34.9,52.6c0.4,0,0.8,0.3,0.8,0.8v11.5c0,0.4-0.3,0.8-0.8,0.8H16.4c-0.4,0-0.8-0.3-0.8-0.8V53.4
			c0-0.4,0.3-0.8,0.8-0.8H34.9z M31.9,14.9c0,0.6-0.5,1.1-1.1,1.1h-0.6c-0.6,0-1.1-0.5-1.1-1.1v-4.2c0-0.6,0.5-1.1,1.1-1.1h0.6
			c0.6,0,1.1,0.5,1.1,1.1V14.9z M35.9,15c0,0.5-0.4,0.9-0.9,0.9c-0.5,0-0.9-0.4-0.9-0.9v-4.5c0-0.5,0.4-0.9,0.9-0.9
			c0.2,0,0.5,0.1,0.6,0.3c0.2,0.2,0.3,0.4,0.3,0.6L35.9,15L35.9,15z M31.9,28.7c0,0.6-0.5,1.1-1.1,1.1h-0.6c-0.6,0-1.1-0.5-1.1-1.1
			v-4.2c0-0.6,0.5-1.1,1.1-1.1h0.6c0.6,0,1.1,0.5,1.1,1.1V28.7z M35.9,28.8c0,0.5-0.4,0.9-0.9,0.9c-0.5,0-0.9-0.4-0.9-0.9v-4.5
			c0-0.5,0.4-0.9,0.9-0.9c0.2,0,0.5,0.1,0.6,0.3c0.2,0.2,0.3,0.4,0.3,0.6L35.9,28.8L35.9,28.8z M41.8,28.7c-0.2,0.1-0.5,0.1-0.8,0.1
			c-1.2,0-2.3-1-2.3-2.3c0-1.2,1-2.3,2.3-2.3c0.3,0,0.5,0,0.8,0.1c0.9,0.3,1.5,1.1,1.5,2.1C43.2,27.6,42.6,28.4,41.8,28.7z M41,15.1
			c-1.2,0-2.3-1-2.3-2.3c0-1.2,1-2.3,2.3-2.3c1.3,0,2.3,1,2.3,2.3C43.2,14,42.2,15.1,41,15.1z"/>
		<path fill="#EAEAEA" d="M37.1,69H30l-2,1.3h-2.4h-2.4l-2-1.3h-7.1c-0.7,0-1.2,0.6-1,1.3l0.3,1.1c0.2,0.7,0.8,1.2,1.6,1.2h10.6
			h10.6c0.7,0,1.4-0.5,1.6-1.2l0.3-1.1C38.3,69.6,37.8,69,37.1,69z"/>
		<path fill="#EAEAEA" d="M70.8,69h-7.1l-2,1.3h-2.4h-2.4L55,69h-7.1c-0.7,0-1.2,0.6-1,1.3l0.3,1.1c0.2,0.7,0.8,1.2,1.6,1.2h10.6
			h10.6c0.7,0,1.4-0.5,1.6-1.2l0.3-1.1C72,69.6,71.5,69,70.8,69z"/>
	</g>
</g>
</svg>
