<?xml version="1.0" encoding="utf-8"?>
<!-- Generator: Adobe Illustrator 26.2.1, SVG Export Plug-In . SVG Version: 6.00 Build 0)  -->
<svg version="1.1" id="圖層_1" xmlns="http://www.w3.org/2000/svg" xmlns:xlink="http://www.w3.org/1999/xlink" x="0px" y="0px"
	 viewBox="0 0 85 80" enable-background="new 0 0 85 80" xml:space="preserve">
<g>
	<path fill="#EAEAEA" d="M74.9,55.1v16.3c0,0.6-0.5,1.1-1.1,1.1H11.2c-0.6,0-1.1-0.5-1.1-1.1V55.1c0-1.1,0.9-1.9,1.9-1.9h15.6
		c0,0,0,0,0,0H33c0,0,0,0,0,0H52c0,0,0,0,0,0h13.5c0,0,0,0,0,0h7.4C74,53.2,74.9,54.1,74.9,55.1z"/>
	<path fill="#EAEAEA" d="M64.2,51.1h-5.5c0.5-1,1.5-1.8,2.8-1.8C62.6,49.3,63.7,50.1,64.2,51.1z"/>
	<path fill="#EAEAEA" d="M45.3,51.1h-5.5c0.5-1,1.5-1.8,2.8-1.8C43.7,49.3,44.8,50.1,45.3,51.1z"/>
	<path fill="#EAEAEA" d="M26.4,51.1h-5.5c0.5-1,1.5-1.8,2.8-1.8C24.8,49.3,25.9,50.1,26.4,51.1z"/>
	<path fill="#EAEAEA" d="M30.5,7.5H16.6c-0.8,0-1.5,0.7-1.5,1.5v42.2h3.5c0.6-2.2,2.6-3.9,5-3.9c2.4,0,4.4,1.6,5,3.9H32V9
		c0,0,0,0,0,0C32,8.2,31.4,7.5,30.5,7.5z M28,31.8h-8.7c-0.6,0-1-0.5-1-1c0-0.6,0.5-1,1-1H28c0.6,0,1,0.5,1,1
		C29,31.3,28.5,31.8,28,31.8z M28,26.3h-8.7c-0.6,0-1-0.5-1-1c0-0.6,0.5-1,1-1H28c0.6,0,1,0.5,1,1C29,25.8,28.5,26.3,28,26.3z
		 M28,20.8h-8.7c-0.6,0-1-0.5-1-1c0-0.6,0.5-1,1-1H28c0.6,0,1,0.5,1,1C29,20.4,28.5,20.8,28,20.8z M28,15.4h-8.7c-0.6,0-1-0.5-1-1
		c0-0.6,0.5-1,1-1H28c0.6,0,1,0.5,1,1C29,14.9,28.5,15.4,28,15.4z"/>
	<path fill="#EAEAEA" d="M49.5,7.5H35.5c-0.8,0-1.5,0.7-1.5,1.5c0,0,0,0,0,0v42.2h3.5c0.6-2.2,2.6-3.9,5-3.9c2.4,0,4.4,1.6,5,3.9
		h3.5V9C50.9,8.2,50.3,7.5,49.5,7.5z M46.9,31.8h-8.7c-0.6,0-1-0.5-1-1c0-0.6,0.5-1,1-1h8.7c0.6,0,1,0.5,1,1
		C47.9,31.3,47.4,31.8,46.9,31.8z M46.9,26.3h-8.7c-0.6,0-1-0.5-1-1c0-0.6,0.5-1,1-1h8.7c0.6,0,1,0.5,1,1
		C47.9,25.8,47.4,26.3,46.9,26.3z M46.9,20.8h-8.7c-0.6,0-1-0.5-1-1c0-0.6,0.5-1,1-1h8.7c0.6,0,1,0.5,1,1
		C47.9,20.4,47.4,20.8,46.9,20.8z M46.9,15.4h-8.7c-0.6,0-1-0.5-1-1c0-0.6,0.5-1,1-1h8.7c0.6,0,1,0.5,1,1
		C47.9,14.9,47.4,15.4,46.9,15.4z"/>
	<path fill="#EAEAEA" d="M68.4,7.5H54.5C53.6,7.5,53,8.2,53,9v42.2h3.5c0.6-2.2,2.6-3.9,5-3.9c2.4,0,4.4,1.6,5,3.9h3.5V9
		C69.8,8.2,69.2,7.5,68.4,7.5z M65.8,31.8H57c-0.6,0-1-0.5-1-1c0-0.6,0.5-1,1-1h8.7c0.6,0,1,0.5,1,1C66.8,31.3,66.3,31.8,65.8,31.8z
		 M65.8,26.3H57c-0.6,0-1-0.5-1-1c0-0.6,0.5-1,1-1h8.7c0.6,0,1,0.5,1,1C66.8,25.8,66.3,26.3,65.8,26.3z M65.8,20.8H57
		c-0.6,0-1-0.5-1-1c0-0.6,0.5-1,1-1h8.7c0.6,0,1,0.5,1,1C66.8,20.4,66.3,20.8,65.8,20.8z M65.8,15.4H57c-0.6,0-1-0.5-1-1
		c0-0.6,0.5-1,1-1h8.7c0.6,0,1,0.5,1,1C66.8,14.9,66.3,15.4,65.8,15.4z"/>
</g>
</svg>
