<?xml version="1.0" encoding="utf-8"?>
<!-- Generator: Adobe Illustrator 26.2.1, SVG Export Plug-In . SVG Version: 6.00 Build 0)  -->
<svg version="1.1" id="圖層_1" xmlns="http://www.w3.org/2000/svg" xmlns:xlink="http://www.w3.org/1999/xlink" x="0px" y="0px"
	 viewBox="0 0 85 80" enable-background="new 0 0 85 80" xml:space="preserve">
<g>
	<path fill="#EAEAEA" d="M29.7,52.8h25.7V27.2H29.7V52.8z M53.1,49.5c0,0.6-0.5,1.1-1.1,1.1h-7c-0.6,0-1.1-0.5-1.1-1.1
		c0-0.6,0.5-1.1,1.1-1.1h6v-6c0-0.6,0.5-1.1,1.1-1.1s1.1,0.5,1.1,1.1V49.5z M45.2,42.9c0-0.7,0.5-1.2,1.2-1.2c0.7,0,1.2,0.5,1.2,1.2
		c0,0.7-0.5,1.2-1.2,1.2C45.8,44.1,45.2,43.6,45.2,42.9z M44.2,31h8.6c0.6,0,1.1,0.5,1.1,1.1c0,0.6-0.5,1.1-1.1,1.1h-8.6
		c-0.6,0-1.1-0.5-1.1-1.1C43.2,31.5,43.6,31,44.2,31z M44.2,35.9h8.6c0.6,0,1.1,0.5,1.1,1.1c0,0.6-0.5,1.1-1.1,1.1h-8.6
		c-0.6,0-1.1-0.5-1.1-1.1C43.2,36.4,43.6,35.9,44.2,35.9z M31.8,30.7c0-0.6,0.5-1.1,1.1-1.1h7c0.6,0,1.1,0.5,1.1,1.1v7
		c0,0.6-0.5,1.1-1.1,1.1h-7c-0.6,0-1.1-0.5-1.1-1.1V30.7z M32.9,41.8h8.6c0.6,0,1.1,0.5,1.1,1.1c0,0.6-0.5,1.1-1.1,1.1h-8.6
		c-0.6,0-1.1-0.5-1.1-1.1C31.8,42.3,32.3,41.8,32.9,41.8z M32.9,46.8h8.6c0.6,0,1.1,0.5,1.1,1.1c0,0.6-0.5,1.1-1.1,1.1h-8.6
		c-0.6,0-1.1-0.5-1.1-1.1C31.8,47.2,32.3,46.8,32.9,46.8z"/>
	<path fill="#EAEAEA" d="M73.9,33.9c0.6,0,1.1-0.5,1.1-1.1c0-0.6-0.5-1.1-1.1-1.1H65v-5h8.9c0.6,0,1.1-0.5,1.1-1.1
		c0-0.6-0.5-1.1-1.1-1.1H65V22c0-2.5-2-4.5-4.5-4.5h-2.6V8.6c0-0.6-0.5-1.1-1.1-1.1c-0.6,0-1.1,0.5-1.1,1.1v8.9h-5V8.6
		c0-0.6-0.5-1.1-1.1-1.1S48.6,8,48.6,8.6v8.9h-5V8.6c0-0.6-0.5-1.1-1.1-1.1c-0.6,0-1.1,0.5-1.1,1.1v8.9h-5V8.6
		c0-0.6-0.5-1.1-1.1-1.1c-0.6,0-1.1,0.5-1.1,1.1v8.9h-5V8.6c0-0.6-0.5-1.1-1.1-1.1c-0.6,0-1.1,0.5-1.1,1.1v8.9h-2.6
		c-2.5,0-4.5,2-4.5,4.5v2.6h-8.9c-0.6,0-1.1,0.5-1.1,1.1c0,0.6,0.5,1.1,1.1,1.1H20v5h-8.9c-0.6,0-1.1,0.5-1.1,1.1
		c0,0.6,0.5,1.1,1.1,1.1H20v5h-8.9c-0.6,0-1.1,0.5-1.1,1.1c0,0.6,0.5,1.1,1.1,1.1H20v5h-8.9c-0.6,0-1.1,0.5-1.1,1.1
		c0,0.6,0.5,1.1,1.1,1.1H20v5h-8.9c-0.6,0-1.1,0.5-1.1,1.1c0,0.6,0.5,1.1,1.1,1.1H20V58c0,2.5,2,4.5,4.5,4.5h2.6v8.9
		c0,0.6,0.5,1.1,1.1,1.1c0.6,0,1.1-0.5,1.1-1.1v-8.9h5v8.9c0,0.6,0.5,1.1,1.1,1.1c0.6,0,1.1-0.5,1.1-1.1v-8.9h5v8.9
		c0,0.6,0.5,1.1,1.1,1.1c0.6,0,1.1-0.5,1.1-1.1v-8.9h5v8.9c0,0.6,0.5,1.1,1.1,1.1s1.1-0.5,1.1-1.1v-8.9h5v8.9c0,0.6,0.5,1.1,1.1,1.1
		c0.6,0,1.1-0.5,1.1-1.1v-8.9h2.6c2.5,0,4.5-2,4.5-4.5v-2.6h8.9c0.6,0,1.1-0.5,1.1-1.1c0-0.6-0.5-1.1-1.1-1.1H65v-5h8.9
		c0.6,0,1.1-0.5,1.1-1.1c0-0.6-0.5-1.1-1.1-1.1H65v-5h8.9c0.6,0,1.1-0.5,1.1-1.1c0-0.6-0.5-1.1-1.1-1.1H65v-5H73.9z M57.5,53.9
		c0,0.6-0.5,1.1-1.1,1.1H28.6c-0.6,0-1.1-0.5-1.1-1.1V26.1c0-0.6,0.5-1.1,1.1-1.1h27.8c0.6,0,1.1,0.5,1.1,1.1V53.9z"/>
	<rect x="33.9" y="31.8" fill="#EAEAEA" width="4.9" height="4.9"/>
</g>
</svg>
