<?xml version="1.0" encoding="utf-8"?>
<!-- Generator: Adobe Illustrator 27.0.0, SVG Export Plug-In . SVG Version: 6.00 Build 0)  -->
<svg version="1.1" id="圖層_1" xmlns="http://www.w3.org/2000/svg" xmlns:xlink="http://www.w3.org/1999/xlink" x="0px" y="0px"
	 viewBox="0 0 20 20" style="enable-background:new 0 0 20 20;" xml:space="preserve">
<style type="text/css">
	.st0{fill:#B9BFC8;}
</style>
<g>
	<path class="st0" d="M6.49,13.51h7.01V6.49H6.49V13.51z"/>
	<path class="st0" d="M19.61,7.77C19.82,7.77,20,7.6,20,7.38c0-0.22-0.18-0.39-0.39-0.39h-1.35V5.15h1.35
		c0.22,0,0.39-0.18,0.39-0.39c0-0.22-0.18-0.39-0.39-0.39h-1.35V3.4c0-0.91-0.74-1.66-1.66-1.66h-0.96V0.39
		c0-0.22-0.18-0.39-0.39-0.39c-0.22,0-0.39,0.18-0.39,0.39v1.35h-1.84V0.39c0-0.22-0.18-0.39-0.39-0.39c-0.22,0-0.39,0.18-0.39,0.39
		v1.35h-1.84V0.39C10.39,0.18,10.22,0,10,0C9.78,0,9.61,0.18,9.61,0.39v1.35H7.77V0.39C7.77,0.18,7.6,0,7.38,0
		C7.16,0,6.99,0.18,6.99,0.39v1.35H5.15V0.39C5.15,0.18,4.98,0,4.76,0C4.54,0,4.37,0.18,4.37,0.39v1.35H3.4
		c-0.91,0-1.66,0.74-1.66,1.66v0.96H0.39C0.18,4.37,0,4.54,0,4.76c0,0.22,0.18,0.39,0.39,0.39h1.35v1.84H0.39
		C0.18,6.99,0,7.16,0,7.38C0,7.6,0.18,7.77,0.39,7.77h1.35v1.84H0.39C0.18,9.61,0,9.78,0,10s0.18,0.39,0.39,0.39h1.35v1.84H0.39
		C0.18,12.23,0,12.4,0,12.62c0,0.22,0.18,0.39,0.39,0.39h1.35v1.84H0.39C0.18,14.85,0,15.02,0,15.24c0,0.22,0.18,0.39,0.39,0.39
		h1.35v0.96c0,0.91,0.74,1.66,1.66,1.66h0.96v1.35c0,0.22,0.18,0.39,0.39,0.39c0.22,0,0.39-0.18,0.39-0.39v-1.35h1.84v1.35
		c0,0.22,0.18,0.39,0.39,0.39c0.22,0,0.39-0.18,0.39-0.39v-1.35h1.84v1.35C9.61,19.82,9.78,20,10,20c0.22,0,0.39-0.18,0.39-0.39
		v-1.35h1.84v1.35c0,0.22,0.18,0.39,0.39,0.39c0.22,0,0.39-0.18,0.39-0.39v-1.35h1.84v1.35c0,0.22,0.18,0.39,0.39,0.39
		c0.22,0,0.39-0.18,0.39-0.39v-1.35h0.96c0.91,0,1.66-0.74,1.66-1.66v-0.96h1.35c0.22,0,0.39-0.18,0.39-0.39
		c0-0.22-0.18-0.39-0.39-0.39h-1.35v-1.84h1.35c0.22,0,0.39-0.18,0.39-0.39c0-0.22-0.18-0.39-0.39-0.39h-1.35v-1.84h1.35
		c0.22,0,0.39-0.18,0.39-0.39s-0.18-0.39-0.39-0.39h-1.35V7.77H19.61z M15.5,15.1c0,0.22-0.18,0.39-0.39,0.39H4.9
		c-0.22,0-0.39-0.18-0.39-0.39V4.9C4.5,4.68,4.68,4.5,4.9,4.5H15.1c0.22,0,0.39,0.18,0.39,0.39V15.1z"/>
</g>
</svg>
