<?xml version="1.0" encoding="utf-8"?>
<!-- Generator: Adobe Illustrator 26.2.1, SVG Export Plug-In . SVG Version: 6.00 Build 0)  -->
<svg version="1.1" id="圖層_1" xmlns="http://www.w3.org/2000/svg" xmlns:xlink="http://www.w3.org/1999/xlink" x="0px" y="0px"
	 viewBox="0 0 85 80" enable-background="new 0 0 85 80" xml:space="preserve">
<g>
	<g>
		<g>
			<path fill="#EAEAEA" d="M70,59.6H15c-0.8,0-1.4,0.6-1.4,1.4V70c0,1.4,1.1,2.5,2.5,2.5h52.8c1.4,0,2.6-1.1,2.6-2.5V61
				C71.4,60.2,70.8,59.6,70,59.6z M58.9,68.1c0,0.7-0.6,1.3-1.3,1.3H27.3c-0.7,0-1.3-0.6-1.3-1.3v0c0-0.7,0.6-1.3,1.3-1.3h30.4
				C58.4,66.8,58.9,67.4,58.9,68.1L58.9,68.1z"/>
			<g>
				<g>
					<path fill="#EAEAEA" d="M64.2,50.5c0,1.3-1,2.3-2.3,2.3c-1.3,0-2.3-1-2.3-2.3c0-1.3,1-2.3,2.3-2.3
						C63.1,48.1,64.2,49.2,64.2,50.5z"/>
					<path fill="#EAEAEA" d="M55.5,50.5c0,1-0.8,1.8-1.8,1.8c-1,0-1.8-0.8-1.8-1.8c0-1,0.8-1.8,1.8-1.8
						C54.7,48.7,55.5,49.5,55.5,50.5z"/>
					<path fill="#EAEAEA" d="M47.3,50.5c0,1-0.8,1.8-1.8,1.8c-1,0-1.8-0.8-1.8-1.8c0-1,0.8-1.8,1.8-1.8
						C46.5,48.7,47.3,49.5,47.3,50.5z"/>
					<path fill="#EAEAEA" d="M39.2,50.5c0,1-0.8,1.8-1.8,1.8c-1,0-1.8-0.8-1.8-1.8c0-1,0.8-1.8,1.8-1.8
						C38.4,48.7,39.2,49.5,39.2,50.5z"/>
				</g>
				<path fill="#EAEAEA" d="M13.6,43.5v13.9c0,0.6,0.5,1.1,1.1,1.1h55.6c0.6,0,1.1-0.5,1.1-1.1V43.5c0-0.6-0.5-1.1-1.1-1.1H14.7
					C14.1,42.4,13.6,42.9,13.6,43.5z M67.9,55H17.1v-9h50.7V55z"/>
			</g>
			<g>
				<g>
					<path fill="#EAEAEA" d="M64.2,33c0,1.3-1,2.3-2.3,2.3c-1.3,0-2.3-1-2.3-2.3c0-1.3,1-2.3,2.3-2.3C63.1,30.7,64.2,31.7,64.2,33z"
						/>
					<path fill="#EAEAEA" d="M55.5,33c0,1-0.8,1.8-1.8,1.8c-1,0-1.8-0.8-1.8-1.8c0-1,0.8-1.8,1.8-1.8C54.7,31.2,55.5,32,55.5,33z"/>
					<path fill="#EAEAEA" d="M47.3,33c0,1-0.8,1.8-1.8,1.8c-1,0-1.8-0.8-1.8-1.8c0-1,0.8-1.8,1.8-1.8C46.5,31.2,47.3,32,47.3,33z"/>
					<path fill="#EAEAEA" d="M39.2,33c0,1-0.8,1.8-1.8,1.8c-1,0-1.8-0.8-1.8-1.8c0-1,0.8-1.8,1.8-1.8C38.4,31.2,39.2,32,39.2,33z"/>
				</g>
				<path fill="#EAEAEA" d="M13.6,26.1V40c0,0.6,0.5,1.1,1.1,1.1h55.6c0.6,0,1.1-0.5,1.1-1.1V26.1c0-0.6-0.5-1.1-1.1-1.1H14.7
					C14.1,24.9,13.6,25.5,13.6,26.1z M67.9,37.6H17.1v-9h50.7V37.6z"/>
			</g>
			<g>
				<g>
					<path fill="#EAEAEA" d="M64.2,15.6c0,1.3-1,2.3-2.3,2.3c-1.3,0-2.3-1-2.3-2.3c0-1.3,1-2.3,2.3-2.3
						C63.1,13.2,64.2,14.3,64.2,15.6z"/>
					<path fill="#EAEAEA" d="M55.5,15.6c0,1-0.8,1.8-1.8,1.8c-1,0-1.8-0.8-1.8-1.8c0-1,0.8-1.8,1.8-1.8
						C54.7,13.8,55.5,14.6,55.5,15.6z"/>
					<path fill="#EAEAEA" d="M47.3,15.6c0,1-0.8,1.8-1.8,1.8c-1,0-1.8-0.8-1.8-1.8c0-1,0.8-1.8,1.8-1.8
						C46.5,13.8,47.3,14.6,47.3,15.6z"/>
					<path fill="#EAEAEA" d="M39.2,15.6c0,1-0.8,1.8-1.8,1.8c-1,0-1.8-0.8-1.8-1.8c0-1,0.8-1.8,1.8-1.8
						C38.4,13.8,39.2,14.6,39.2,15.6z"/>
				</g>
				<path fill="#EAEAEA" d="M13.6,8.6v13.9c0,0.6,0.5,1.1,1.1,1.1h55.6c0.6,0,1.1-0.5,1.1-1.1V8.6c0-0.6-0.5-1.1-1.1-1.1H14.7
					C14.1,7.5,13.6,8,13.6,8.6z M67.9,20.1H17.1v-9h50.7V20.1z"/>
			</g>
		</g>
	</g>
</g>
</svg>
